<svg width="42" height="56" viewBox="0 0 42 56" fill="none" xmlns="http://www.w3.org/2000/svg">
<path d="M0 56V0H17.0704V7.03595H8.91384V48.9419H17.0704V56H0Z" fill="#FF3636"/>
<path d="M20.3645 28.1881V23.7408C22.8598 23.7408 24.5906 23.2319 25.557 22.2141C26.5234 21.1964 27.0066 19.5517 27.0066 17.2801V12.3904C27.0066 9.66153 27.3744 7.47847 28.11 5.84117C28.86 4.18912 29.8985 2.94271 31.2255 2.10194C32.5669 1.26116 34.1535 0.700644 35.9853 0.420385C37.8171 0.140128 39.822 0 42 0V7.03595C40.298 7.03595 38.9999 7.26459 38.1056 7.72185C37.2258 8.16436 36.6272 8.85763 36.3099 9.80166C35.9925 10.7309 35.8339 11.911 35.8339 13.3418V19.8025C35.8339 20.9235 35.6319 21.9929 35.2281 23.0107C34.8242 24.0137 34.0742 24.9061 32.978 25.6879C31.8818 26.4549 30.3168 27.067 28.2831 27.5243C26.2493 27.9668 23.6098 28.1881 20.3645 28.1881ZM42 56C39.822 56 37.8171 55.8599 35.9853 55.5796C34.1535 55.2994 32.5669 54.7388 31.2255 53.8981C29.8985 53.0573 28.86 51.8109 28.11 50.1588C27.3744 48.5215 27.0066 46.3385 27.0066 43.6096V38.6977C27.0066 36.4262 26.5234 34.7815 25.557 33.7637C24.5906 32.746 22.8598 32.2371 20.3645 32.2371V27.7898C23.6098 27.7898 26.2493 28.0184 28.2831 28.4757C30.3168 28.9182 31.8818 29.5304 32.978 30.3121C34.0742 31.0792 34.8242 31.9716 35.2281 32.9893C35.6319 33.9924 35.8339 35.0618 35.8339 36.1976V42.6582C35.8339 44.0743 35.9925 45.2469 36.3099 46.1762C36.6272 47.1202 37.2258 47.8135 38.1056 48.256C38.9999 48.7133 40.298 48.9419 42 48.9419V56ZM20.3645 32.2371V23.7408H28.1316V32.2371H20.3645Z" fill="#FF3636"/>
</svg>
