<svg width="12" height="12" viewBox="0 0 12 12" fill="none" xmlns="http://www.w3.org/2000/svg">
<rect width="100%" height="100%"/>
<path d="M2 11V1H5.04829V2.25642H3.59176V9.73963H5.04829V11H2Z" fill="#6E6E6E"/>
<path d="M5.63651 6.03358V5.23943C6.0821 5.23943 6.39118 5.14856 6.56375 4.96681C6.73632 4.78506 6.8226 4.49137 6.8226 4.08574V3.21256C6.8226 2.72527 6.88828 2.33544 7.01964 2.04307C7.15357 1.74806 7.33902 1.52548 7.57598 1.37535C7.81552 1.22521 8.09884 1.12512 8.42595 1.07507C8.75306 1.02502 9.11108 1 9.5 1V2.25642C9.19607 2.25642 8.96426 2.29725 8.80457 2.3789C8.64746 2.45792 8.54057 2.58172 8.4839 2.7503C8.42724 2.91624 8.39891 3.12696 8.39891 3.38246V4.53615C8.39891 4.73634 8.36285 4.9273 8.29073 5.10905C8.21861 5.28816 8.08467 5.44752 7.88892 5.58712C7.69317 5.72409 7.41372 5.8334 7.05055 5.91505C6.68738 5.99407 6.21603 6.03358 5.63651 6.03358ZM9.5 11C9.11108 11 8.75306 10.975 8.42595 10.9249C8.09884 10.8749 7.81552 10.7748 7.57598 10.6247C7.33902 10.4745 7.15357 10.2519 7.01964 9.95693C6.88828 9.66456 6.8226 9.27473 6.8226 8.78744V7.91031C6.8226 7.50467 6.73632 7.21098 6.56375 7.02924C6.39118 6.84749 6.0821 6.75662 5.63651 6.75662V5.96247C6.21603 5.96247 6.68738 6.00329 7.05055 6.08495C7.41372 6.16397 7.69317 6.27328 7.88892 6.41288C8.08467 6.54985 8.21861 6.70921 8.29073 6.89095C8.36285 7.07006 8.39891 7.26103 8.39891 7.46385V8.61754C8.39891 8.87041 8.42724 9.07981 8.4839 9.24575C8.54057 9.41433 8.64746 9.53813 8.80457 9.61715C8.96426 9.6988 9.19607 9.73963 9.5 9.73963V11ZM5.63651 6.75662V5.23943H7.0235V6.75662H5.63651Z" fill="#6E6E6E"/>
</svg>
