<svg width="16" height="16" viewBox="0 0 16 16" fill="none" xmlns="http://www.w3.org/2000/svg">
<path d="M3 15V1H7.26761V2.75899H5.22846V13.2355H7.26761V15H3Z" fill="#BBBBBB"/>
<path d="M8.09111 8.04702V6.9352C8.71494 6.9352 9.14765 6.80798 9.38925 6.55354C9.63084 6.29909 9.75164 5.88792 9.75164 5.32003V4.09759C9.75164 3.41538 9.84359 2.86962 10.0275 2.46029C10.215 2.04728 10.4746 1.73568 10.8064 1.52548C11.1417 1.31529 11.5384 1.17516 11.9963 1.1051C12.4543 1.03503 12.9555 1 13.5 1V2.75899C13.0745 2.75899 12.75 2.81615 12.5264 2.93046C12.3064 3.04109 12.1568 3.21441 12.0775 3.45041C11.9981 3.68273 11.9585 3.97774 11.9585 4.33544V5.95061C11.9585 6.23087 11.908 6.49822 11.807 6.75267C11.7061 7.00342 11.5185 7.22653 11.2445 7.42197C10.9704 7.61372 10.5792 7.76676 10.0708 7.88108C9.56233 7.9917 8.90245 8.04702 8.09111 8.04702ZM13.5 15C12.9555 15 12.4543 14.965 11.9963 14.8949C11.5384 14.8248 11.1417 14.6847 10.8064 14.4745C10.4746 14.2643 10.215 13.9527 10.0275 13.5397C9.84359 13.1304 9.75164 12.5846 9.75164 11.9024V10.6744C9.75164 10.1065 9.63084 9.69538 9.38925 9.44093C9.14765 9.18649 8.71494 9.05927 8.09111 9.05927V7.94745C8.90245 7.94745 9.56233 8.00461 10.0708 8.11893C10.5792 8.22955 10.9704 8.38259 11.2445 8.57803C11.5185 8.76979 11.7061 8.99289 11.807 9.24733C11.908 9.49809 11.9585 9.76544 11.9585 10.0494V11.6646C11.9585 12.0186 11.9981 12.3117 12.0775 12.5441C12.1568 12.7801 12.3064 12.9534 12.5264 13.064C12.75 13.1783 13.0745 13.2355 13.5 13.2355V15ZM8.09111 9.05927V6.9352H10.0329V9.05927H8.09111Z" fill="#BBBBBB"/>
</svg>
