<svg width="12" height="12" viewBox="0 0 12 12" fill="none" xmlns="http://www.w3.org/2000/svg">
<rect width="12" height="12" fill="none"/>
<path fill-rule="evenodd" clip-rule="evenodd" d="M2.04108 3.09799C1.38858 3.39162 1.16738 3.72023 1.16738 3.94583C1.16738 4.17142 1.38858 4.50004 2.04108 4.79366C2.65852 5.07151 3.53771 5.25303 4.52876 5.25303C5.5198 5.25303 6.399 5.07151 7.01644 4.79366C7.66893 4.50004 7.89013 4.17142 7.89013 3.94583C7.89013 3.72023 7.66893 3.39162 7.01644 3.09799C6.399 2.82015 5.5198 2.63863 4.52876 2.63863C3.53771 2.63863 2.65852 2.82015 2.04108 3.09799ZM1.73455 2.41681C2.46886 2.08637 3.4571 1.89165 4.52876 1.89165C5.60042 1.89165 6.58865 2.08637 7.32297 2.41681C8.02222 2.73148 8.6371 3.2432 8.6371 3.94583C8.6371 4.64845 8.02222 5.16018 7.32297 5.47484C6.58865 5.80528 5.60042 6 4.52876 6C3.4571 6 2.46886 5.80528 1.73455 5.47484C1.03529 5.16018 0.42041 4.64845 0.42041 3.94583C0.42041 3.2432 1.03529 2.73148 1.73455 2.41681Z" fill="#7F8B91"/>
<path fill-rule="evenodd" clip-rule="evenodd" d="M0.793896 3.57234C1.00017 3.57234 1.16738 3.73956 1.16738 3.94583V5.81326C1.16738 6.03938 1.38857 6.36797 2.04075 6.66139C2.65805 6.93912 3.53723 7.12046 4.52876 7.12046C5.52028 7.12046 6.39947 6.93912 7.01676 6.66139C7.66895 6.36797 7.89013 6.03938 7.89013 5.81326V3.94583C7.89013 3.73956 8.05735 3.57234 8.26362 3.57234C8.46989 3.57234 8.6371 3.73956 8.6371 3.94583V5.81326C8.6371 6.51618 8.02261 7.02794 7.32324 7.34259C6.58899 7.67295 5.60074 7.86743 4.52876 7.86743C3.45677 7.86743 2.46853 7.67295 1.73427 7.34259C1.0349 7.02794 0.42041 6.51618 0.42041 5.81326V3.94583C0.42041 3.73956 0.587626 3.57234 0.793896 3.57234Z" fill="#7F8B91"/>
<path fill-rule="evenodd" clip-rule="evenodd" d="M3.03511 5.11297C3.24138 5.11297 3.40859 5.28018 3.40859 5.48645V7.35388C3.40859 7.56016 3.24138 7.72737 3.03511 7.72737C2.82884 7.72737 2.66162 7.56016 2.66162 7.35388V5.48645C2.66162 5.28018 2.82884 5.11297 3.03511 5.11297Z" fill="#7F8B91"/>
<path fill-rule="evenodd" clip-rule="evenodd" d="M7.89177 4.50409C7.9109 4.29871 8.0929 4.14773 8.29829 4.16686C9.18524 4.24948 9.98478 4.46828 10.5751 4.78959C11.1448 5.09964 11.625 5.56897 11.625 6.18674C11.625 6.88967 11.0105 7.40142 10.3112 7.71608C9.5769 8.04643 8.58866 8.24091 7.51667 8.24091C6.56409 8.24091 5.67849 8.08582 4.98149 7.82508C4.7883 7.7528 4.69027 7.5376 4.76255 7.3444C4.83482 7.15121 5.05003 7.05318 5.24322 7.12546C5.84409 7.35024 6.63917 7.49394 7.51667 7.49394C8.5082 7.49394 9.38738 7.3126 10.0047 7.03488C10.6569 6.74145 10.878 6.41286 10.878 6.18674C10.878 5.99218 10.7163 5.71687 10.2181 5.44568C9.74048 5.18576 9.04608 4.98672 8.229 4.91061C8.02362 4.89148 7.87264 4.70947 7.89177 4.50409Z" fill="#7F8B91"/>
<path fill-rule="evenodd" clip-rule="evenodd" d="M11.2519 5.81326C11.4582 5.81326 11.6254 5.98047 11.6254 6.18674V8.05417C11.6254 8.7571 11.0109 9.26885 10.3115 9.58351C9.57727 9.91386 8.58902 10.1083 7.51704 10.1083C6.44505 10.1083 5.45681 9.91386 4.72255 9.58351C4.02318 9.26885 3.40869 8.7571 3.40869 8.05417V7.46126C3.40869 7.25499 3.57591 7.08778 3.78218 7.08778C3.98845 7.08778 4.15566 7.25499 4.15566 7.46126V8.05417C4.15566 8.28029 4.37685 8.60888 5.02903 8.90231C5.64633 9.18004 6.52551 9.36137 7.51704 9.36137C8.50856 9.36137 9.38775 9.18004 10.005 8.90231C10.6572 8.60888 10.8784 8.28029 10.8784 8.05417V6.18674C10.8784 5.98047 11.0456 5.81326 11.2519 5.81326Z" fill="#7F8B91"/>
<path fill-rule="evenodd" clip-rule="evenodd" d="M9.0102 7.35388C9.21648 7.35388 9.38369 7.5211 9.38369 7.72737V9.5948C9.38369 9.80107 9.21648 9.96828 9.0102 9.96828C8.80393 9.96828 8.63672 9.80107 8.63672 9.5948V7.72737C8.63672 7.5211 8.80393 7.35388 9.0102 7.35388Z" fill="#7F8B91"/>
<path fill-rule="evenodd" clip-rule="evenodd" d="M6.0229 5.11297C6.22917 5.11297 6.39639 5.28018 6.39639 5.48645V9.5948C6.39639 9.80107 6.22917 9.96829 6.0229 9.96829C5.81663 9.96829 5.64941 9.80107 5.64941 9.5948V5.48645C5.64941 5.28018 5.81663 5.11297 6.0229 5.11297Z" fill="#7F8B91"/>
</svg>
