<svg width="16" height="16" viewBox="0 0 16 16" fill="none" xmlns="http://www.w3.org/2000/svg">
<path fill-rule="evenodd" clip-rule="evenodd" d="M2.72144 4.13067C1.85144 4.52218 1.55651 4.96032 1.55651 5.26112C1.55651 5.56191 1.85144 6.00007 2.72144 6.39156C3.54469 6.76203 4.71695 7.00406 6.03835 7.00406C7.35973 7.00406 8.532 6.76203 9.35525 6.39156C10.2252 6.00007 10.5202 5.56191 10.5202 5.26112C10.5202 4.96032 10.2252 4.52218 9.35525 4.13067C8.532 3.76022 7.35973 3.51819 6.03835 3.51819C4.71695 3.51819 3.54469 3.76022 2.72144 4.13067ZM2.31273 3.22243C3.29181 2.78184 4.60947 2.52222 6.03835 2.52222C7.46723 2.52222 8.78487 2.78184 9.76396 3.22243C10.6963 3.64199 11.5161 4.32428 11.5161 5.26112C11.5161 6.19795 10.6963 6.88026 9.76396 7.2998C8.78487 7.74039 7.46723 8.00002 6.03835 8.00002C4.60947 8.00002 3.29181 7.74039 2.31273 7.2998C1.38039 6.88026 0.560547 6.19795 0.560547 5.26112C0.560547 4.32428 1.38039 3.64199 2.31273 3.22243Z" fill="#7F8B91"/>
<path fill-rule="evenodd" clip-rule="evenodd" d="M1.05853 4.76312C1.33356 4.76312 1.55651 4.98608 1.55651 5.26111V7.75102C1.55651 8.05251 1.85143 8.49063 2.721 8.88186C3.54407 9.25216 4.71631 9.49395 6.03835 9.49395C7.36037 9.49395 8.53263 9.25216 9.35568 8.88186C10.2253 8.49063 10.5202 8.05251 10.5202 7.75102V5.26111C10.5202 4.98608 10.7431 4.76312 11.0182 4.76312C11.2932 4.76312 11.5161 4.98608 11.5161 5.26111V7.75102C11.5161 8.68824 10.6968 9.37059 9.76432 9.79012C8.78532 10.2306 7.46765 10.4899 6.03835 10.4899C4.60903 10.4899 3.29137 10.2306 2.31236 9.79012C1.37987 9.37059 0.560547 8.68824 0.560547 7.75102V5.26111C0.560547 4.98608 0.783502 4.76312 1.05853 4.76312Z" fill="#7F8B91"/>
<path fill-rule="evenodd" clip-rule="evenodd" d="M4.04681 6.81732C4.32184 6.81732 4.54479 7.04027 4.54479 7.3153V9.8052C4.54479 10.0802 4.32184 10.3032 4.04681 10.3032C3.77179 10.3032 3.54883 10.0802 3.54883 9.8052V7.3153C3.54883 7.04027 3.77179 6.81732 4.04681 6.81732Z" fill="#7F8B91"/>
<path fill-rule="evenodd" clip-rule="evenodd" d="M10.5224 6.00547C10.5479 5.73163 10.7905 5.53032 11.0644 5.55583C12.247 5.66599 13.313 5.95772 14.1001 6.38614C14.8597 6.79954 15.5 7.42531 15.5 8.249C15.5 9.18624 14.6807 9.86858 13.7483 10.2881C12.7692 10.7286 11.4515 10.9879 10.0222 10.9879C8.75212 10.9879 7.57132 10.7811 6.64199 10.4335C6.3844 10.3371 6.25369 10.0501 6.35007 9.79255C6.44643 9.53496 6.73337 9.40426 6.99096 9.50063C7.79212 9.80034 8.85223 9.99194 10.0222 9.99194C11.3443 9.99194 12.5165 9.75015 13.3396 9.37986C14.2092 8.98862 14.504 8.5505 14.504 8.249C14.504 7.98959 14.2884 7.62251 13.6241 7.26092C12.9873 6.91436 12.0614 6.64898 10.972 6.5475C10.6982 6.52199 10.4969 6.27931 10.5224 6.00547Z" fill="#7F8B91"/>
<path fill-rule="evenodd" clip-rule="evenodd" d="M15.0025 7.75104C15.2776 7.75104 15.5005 7.97398 15.5005 8.24901V10.7389C15.5005 11.6762 14.6812 12.3585 13.7487 12.778C12.7697 13.2185 11.452 13.4778 10.0227 13.4778C8.5934 13.4778 7.27575 13.2185 6.29674 12.778C5.36424 12.3585 4.54492 11.6762 4.54492 10.7389V9.94837C4.54492 9.67334 4.76788 9.4504 5.04291 9.4504C5.31794 9.4504 5.54088 9.67334 5.54088 9.94837V10.7389C5.54088 11.0404 5.8358 11.4785 6.70538 11.8698C7.52844 12.2401 8.70068 12.4819 10.0227 12.4819C11.3447 12.4819 12.517 12.2401 13.34 11.8698C14.2096 11.4785 14.5045 11.0404 14.5045 10.7389V8.24901C14.5045 7.97398 14.7275 7.75104 15.0025 7.75104Z" fill="#7F8B91"/>
<path fill-rule="evenodd" clip-rule="evenodd" d="M12.0136 9.80518C12.2886 9.80518 12.5116 10.0281 12.5116 10.3032V12.7931C12.5116 13.0681 12.2886 13.291 12.0136 13.291C11.7386 13.291 11.5156 13.0681 11.5156 12.7931V10.3032C11.5156 10.0281 11.7386 9.80518 12.0136 9.80518Z" fill="#7F8B91"/>
<path fill-rule="evenodd" clip-rule="evenodd" d="M8.03052 6.81732C8.30555 6.81732 8.52851 7.04027 8.52851 7.3153V12.7931C8.52851 13.0681 8.30555 13.2911 8.03052 13.2911C7.75549 13.2911 7.53253 13.0681 7.53253 12.7931V7.3153C7.53253 7.04027 7.75549 6.81732 8.03052 6.81732Z" fill="#7F8B91"/>
</svg>
