<svg width="16" height="16" viewBox="0 0 16 16" fill="none" xmlns="http://www.w3.org/2000/svg">
<path fill-rule="evenodd" clip-rule="evenodd" d="M8 16C12.4183 16 16 12.4183 16 8C16 3.58173 12.4183 0 8 0C3.58173 0 0 3.58173 0 8C0 12.4183 3.58173 16 8 16ZM6.98142 10.1575V10.255H8.44885V10.1575C8.4557 9.76414 8.50016 9.43406 8.58226 9.16725C8.66435 8.90045 8.79434 8.66955 8.97221 8.47459C9.15349 8.27962 9.38952 8.09149 9.68026 7.91019C9.98811 7.72547 10.2515 7.51341 10.4704 7.27397C10.6928 7.03453 10.8638 6.76259 10.9835 6.45816C11.1032 6.1503 11.1631 5.80482 11.1631 5.42171C11.1631 4.86416 11.0314 4.37674 10.768 3.95942C10.508 3.53869 10.142 3.21202 9.67 2.97942C9.19797 2.74341 8.64725 2.62539 8.01786 2.62539C7.4432 2.62539 6.91814 2.73485 6.44269 2.95376C5.97064 3.17269 5.59096 3.49594 5.30363 3.9235C5.0163 4.34765 4.86066 4.86758 4.83672 5.48328H6.39651C6.42045 5.1207 6.51109 4.82483 6.66845 4.59565C6.82579 4.36304 7.02418 4.19202 7.26362 4.08256C7.50306 3.9731 7.75448 3.91837 8.01786 3.91837C8.30861 3.91837 8.572 3.97994 8.80802 4.10309C9.04746 4.2228 9.23901 4.39382 9.38267 4.61618C9.52634 4.83851 9.59818 5.10189 9.59818 5.40632C9.59818 5.65944 9.55029 5.89034 9.45451 6.09899C9.35874 6.30765 9.22875 6.49235 9.06456 6.65312C8.90037 6.81389 8.71566 6.95926 8.51043 7.08925C8.1923 7.2808 7.92037 7.49288 7.69461 7.72547C7.46886 7.95808 7.2944 8.26251 7.17126 8.63877C7.05155 9.01504 6.98827 9.52128 6.98142 10.1575ZM7.03274 13.077C7.23454 13.2754 7.4757 13.3746 7.75619 13.3746C7.94432 13.3746 8.11534 13.3284 8.26928 13.236C8.4232 13.1437 8.54634 13.0205 8.6387 12.8666C8.73448 12.7093 8.78237 12.5365 8.78237 12.3484C8.78237 12.0679 8.67974 11.8285 8.47451 11.6301C8.27269 11.4283 8.03325 11.3273 7.75619 11.3273C7.4757 11.3273 7.23454 11.4283 7.03274 11.6301C6.83091 11.8285 6.73002 12.0679 6.73002 12.3484C6.73002 12.6323 6.83091 12.8752 7.03274 13.077Z" fill="#7F8B91"/>
</svg>
