<svg width="10" height="10" viewBox="0 0 10 10" fill="none" xmlns="http://www.w3.org/2000/svg">
<path fill-rule="evenodd" clip-rule="evenodd" d="M5 10C7.76142 10 10 7.76142 10 5C10 2.23858 7.76142 0 5 0C2.23858 0 0 2.23858 0 5C0 7.76142 2.23858 10 5 10ZM4.36339 6.34845V6.40937H5.28053V6.34845C5.28481 6.10259 5.3126 5.89629 5.36391 5.72953C5.41522 5.56278 5.49646 5.41847 5.60763 5.29662C5.72093 5.17476 5.86845 5.05718 6.05016 4.94387C6.24257 4.82842 6.40719 4.69588 6.54401 4.54623C6.68297 4.39658 6.78987 4.22662 6.86469 4.03635C6.93952 3.84394 6.97693 3.62801 6.97693 3.38857C6.97693 3.0401 6.89462 2.73546 6.73001 2.47464C6.56753 2.21168 6.33878 2.00751 6.04375 1.86214C5.74873 1.71463 5.40453 1.64087 5.01116 1.64087C4.652 1.64087 4.32384 1.70928 4.02668 1.8461C3.73165 1.98293 3.49435 2.18496 3.31477 2.45219C3.13519 2.71728 3.03791 3.04224 3.02295 3.42705H3.99782C4.01278 3.20044 4.06943 3.01552 4.16778 2.87228C4.26612 2.7269 4.39011 2.62001 4.53976 2.5516C4.68941 2.48319 4.84655 2.44898 5.01116 2.44898C5.19288 2.44898 5.3575 2.48746 5.50501 2.56443C5.65466 2.63925 5.77438 2.74614 5.86417 2.88511C5.95396 3.02407 5.99886 3.18868 5.99886 3.37895C5.99886 3.53715 5.96893 3.68146 5.90907 3.81187C5.84921 3.94228 5.76797 4.05772 5.66535 4.1582C5.56273 4.25868 5.44729 4.34954 5.31902 4.43078C5.12019 4.5505 4.95023 4.68305 4.80913 4.82842C4.66804 4.9738 4.559 5.16407 4.48204 5.39923C4.40722 5.6344 4.36767 5.9508 4.36339 6.34845ZM4.39546 8.17311C4.52159 8.29711 4.67231 8.35911 4.84762 8.35911C4.9652 8.35911 5.07209 8.33025 5.1683 8.27252C5.2645 8.2148 5.34146 8.13784 5.39919 8.04163C5.45905 7.94329 5.48898 7.83533 5.48898 7.71775C5.48898 7.54244 5.42484 7.39279 5.29657 7.2688C5.17043 7.14266 5.02078 7.07959 4.84762 7.07959C4.67231 7.07959 4.52159 7.14266 4.39546 7.2688C4.26932 7.39279 4.20626 7.54244 4.20626 7.71775C4.20626 7.89519 4.26932 8.04698 4.39546 8.17311Z" fill="#7F8B91"/>
</svg>
