<svg width="15" height="15" viewBox="0 0 15 15" fill="none" xmlns="http://www.w3.org/2000/svg">
<rect width="15" height="15" fill="white"/>
<path d="M12.9335 3.97104V11.842C12.9335 13.0353 11.9433 14 10.75 14H6.81425C6.23033 14 5.67187 13.7714 5.26563 13.3652L1 9.02317C1 9.02317 1.68575 8.36288 1.71121 8.36288C1.83796 8.26104 1.99071 8.21067 2.14292 8.21067C2.26967 8.21067 2.3715 8.23613 2.47279 8.28704C2.49825 8.28704 4.809 9.60763 4.809 9.60763V3.15854C4.809 2.70138 5.16433 2.34604 5.6215 2.34604C6.07867 2.34604 6.434 2.70138 6.434 3.15854V6.967H6.967V1.8125C6.967 1.35533 7.32233 1 7.7795 1C8.23667 1 8.592 1.35533 8.592 1.8125V6.967H9.125V2.34604C9.125 1.88888 9.48033 1.53354 9.9375 1.53354C10.3947 1.53354 10.75 1.88888 10.75 2.34604V6.967H11.3085V3.97104C11.3085 3.51388 11.6638 3.15854 12.121 3.15854C12.5781 3.15854 12.9335 3.51388 12.9335 3.97104Z" fill="black"/>
</svg>
