<svg width="12" height="12" viewBox="0 0 12 12" fill="none" xmlns="http://www.w3.org/2000/svg">
<path d="M10.3468 3.17682V9.47359C10.3468 10.4282 9.55463 11.2 8.59999 11.2H5.45139C4.98425 11.2 4.53748 11.0171 4.21249 10.6921L0.799988 7.21852C0.799988 7.21852 1.34859 6.69029 1.36896 6.69029C1.47036 6.60882 1.59256 6.56852 1.71432 6.56852C1.81572 6.56852 1.89719 6.58889 1.97822 6.62962C1.99859 6.62962 3.84719 7.68609 3.84719 7.68609V2.52682C3.84719 2.16109 4.13145 1.87682 4.49719 1.87682C4.86292 1.87682 5.14719 2.16109 5.14719 2.52682V5.57359H5.57359V1.44999C5.57359 1.08425 5.85785 0.799988 6.22359 0.799988C6.58932 0.799988 6.87359 1.08425 6.87359 1.44999V5.57359H7.29999V1.87682C7.29999 1.51109 7.58425 1.22682 7.94999 1.22682C8.31575 1.22682 8.59999 1.51109 8.59999 1.87682V5.57359H9.04679V3.17682C9.04679 2.81109 9.33103 2.52682 9.69679 2.52682C10.0625 2.52682 10.3468 2.81109 10.3468 3.17682Z" fill="#7F8B91"/>
</svg>
