<svg width="24" height="24" viewBox="0 0 24 24" fill="none" xmlns="http://www.w3.org/2000/svg">
<path fill-rule="evenodd" clip-rule="evenodd" d="M13.8904 5.78475L12 7.7733L10.1096 5.78475C8.48261 4.07329 5.87781 4.07328 4.25087 5.78473C2.5833 7.53889 2.58281 10.4143 4.25084 12.1703L5.05415 13.0153L11.9999 20.3226L18.9458 13.0141L19.7492 12.169C21.4167 10.4148 21.4172 7.53943 19.7492 5.78343M20.8364 13.2025L12 22.5L3.1637 13.2038C0.945435 10.869 0.945435 7.08472 3.1637 4.75125C5.30426 2.49951 8.72816 2.42062 10.9586 4.51461C11.0396 4.59063 11.119 4.6695 11.1967 4.75125L12 5.59624L12.8033 4.75125C12.881 4.66948 12.9604 4.59057 13.0413 4.51453C15.2718 2.41933 18.6957 2.49819 20.8364 4.74994C23.0546 7.08472 23.0546 10.869 20.8364 13.2025ZM13.8904 5.78475C15.5174 4.07244 18.1223 4.07233 19.7492 5.78343L13.8904 5.78475Z" fill="#7F8B91"/>
</svg>
