<svg width="16" height="16" viewBox="0 0 16 16" fill="none" xmlns="http://www.w3.org/2000/svg">
<path fill-rule="evenodd" clip-rule="evenodd" d="M9.26029 3.8565L8 5.1822L6.73971 3.8565C5.65507 2.71553 3.91854 2.71552 2.83391 3.85649C1.7222 5.02593 1.72187 6.94285 2.83389 8.11352L3.36943 8.67685L7.99994 13.5484L12.6305 8.67609L13.1661 8.11266C13.1661 8.11266 13.1661 8.11267 13.1661 8.11266C14.2778 6.94321 14.2781 5.02629 13.1661 3.85562M13.8909 8.80165L8 15L2.10913 8.80252C0.630289 7.246 0.630289 4.72315 2.10913 3.1675C3.53617 1.66634 5.81877 1.61375 7.30575 3.00974C7.35973 3.06042 7.41266 3.113 7.46447 3.1675L8 3.73083L8.53553 3.1675C8.58733 3.11299 8.64024 3.06038 8.69421 3.00969C10.1812 1.61289 12.4638 1.66546 13.8909 3.16663C15.3697 4.72315 15.3697 7.246 13.8909 8.80165ZM9.26029 3.8565C10.3449 2.71496 12.0815 2.71489 13.1661 3.85562Z" fill="#7F8B91"/>
</svg>
