<svg width="11" height="13" viewBox="0 0 11 13" fill="none" xmlns="http://www.w3.org/2000/svg">
<path d="M0 13V0H4.125V1.63335H2.154V11.3615H4.125V13H0Z" fill="#FF3636"/>
<path d="M5.5 6.54365V5.51126C6.13433 5.51126 6.57434 5.39313 6.82 5.15685C7.06567 4.92058 7.1885 4.53878 7.1885 4.01146V2.87633C7.1885 2.24285 7.282 1.73607 7.469 1.35599C7.65966 0.972478 7.92367 0.683124 8.261 0.487955C8.602 0.292773 9.00533 0.162656 9.471 0.097591C9.93667 0.032526 10.4463 0 11 0V1.63335C10.5673 1.63335 10.2373 1.68643 10.01 1.79257C9.78634 1.8953 9.63417 2.05624 9.5535 2.27539C9.47284 2.49111 9.43251 2.76505 9.43251 3.0972V4.59699C9.43251 4.85724 9.38117 5.10549 9.2785 5.34176C9.17584 5.57461 8.98516 5.78178 8.70649 5.96326C8.42783 6.14132 8.03001 6.28342 7.513 6.38956C6.996 6.49229 6.32499 6.54365 5.5 6.54365ZM11 13C10.4463 13 9.93667 12.9675 9.471 12.9024C9.00533 12.8374 8.602 12.7072 8.261 12.5121C7.92367 12.3168 7.65966 12.0275 7.469 11.644C7.282 11.2639 7.1885 10.7571 7.1885 10.1237V8.9834C7.1885 8.45607 7.06567 8.07427 6.82 7.83801C6.57434 7.60174 6.13433 7.48361 5.5 7.48361V6.45121C6.32499 6.45121 6.996 6.50428 7.513 6.61043C8.03001 6.71316 8.42783 6.85526 8.70649 7.03674C8.98516 7.2148 9.17584 7.42197 9.2785 7.65823C9.38117 7.89108 9.43251 8.13934 9.43251 8.403V9.9028C9.43251 10.2315 9.47284 10.5038 9.5535 10.7195C9.63417 10.9386 9.78634 11.0996 10.01 11.2023C10.2373 11.3084 10.5673 11.3615 11 11.3615V13ZM5.5 7.48361V5.51126H7.4745V7.48361H5.5Z" fill="#FF3636"/>
</svg>
