<svg width="16" height="16" viewBox="0 0 16 16" fill="none" xmlns="http://www.w3.org/2000/svg">
<path d="M2.66669 14.6666V1.33331H6.73107V3.00854H4.78903V12.9862H6.73107V14.6666H2.66669Z" fill="#FF3636"/>
<path d="M7.51532 8.04475V6.98589C8.10944 6.98589 8.52155 6.86473 8.75164 6.62239C8.98173 6.38006 9.09677 5.98847 9.09677 5.44763V4.28339C9.09677 3.63367 9.18435 3.1139 9.35949 2.72407C9.53807 2.33073 9.78533 2.03395 10.1013 1.83378C10.4207 1.63359 10.7984 1.50014 11.2346 1.43341C11.6707 1.36667 12.1481 1.33331 12.6666 1.33331V3.00854C12.2614 3.00854 11.9523 3.06298 11.7394 3.17185C11.5299 3.27721 11.3874 3.44227 11.3118 3.66705C11.2363 3.8883 11.1985 4.16926 11.1985 4.50993V6.04818C11.1985 6.3151 11.1504 6.56971 11.0543 6.81205C10.9581 7.05086 10.7795 7.26334 10.5185 7.44947C10.2575 7.6321 9.88493 7.77785 9.40071 7.88671C8.91648 7.99207 8.28801 8.04475 7.51532 8.04475ZM12.6666 14.6666C12.1481 14.6666 11.6707 14.6333 11.2346 14.5665C10.7984 14.4998 10.4207 14.3664 10.1013 14.1662C9.78533 13.966 9.53807 13.6692 9.35949 13.2759C9.18435 12.8861 9.09677 12.3663 9.09677 11.7166V10.5471C9.09677 10.0062 8.98173 9.61462 8.75164 9.3723C8.52155 9.12997 8.10944 9.00881 7.51532 9.00881V7.94994C8.28801 7.94994 8.91648 8.00437 9.40071 8.11325C9.88493 8.21861 10.2575 8.36435 10.5185 8.55049C10.7795 8.73311 10.9581 8.94559 11.0543 9.18791C11.1504 9.42673 11.1985 9.68135 11.1985 9.95178V11.49C11.1985 11.8272 11.2363 12.1064 11.3118 12.3276C11.3874 12.5524 11.5299 12.7175 11.7394 12.8228C11.9523 12.9317 12.2614 12.9862 12.6666 12.9862V14.6666ZM7.51532 9.00881V6.98589H9.36464V9.00881H7.51532Z" fill="#FF3636"/>
</svg>
