<svg width="13" height="13" viewBox="0 0 13 13" fill="none" xmlns="http://www.w3.org/2000/svg">
<path d="M2.16669 11.9166V1.08331H5.469V2.44443H3.89109V10.5512H5.469V11.9166H2.16669Z" fill="#FF3636"/>
<path d="M6.1062 6.53636V5.67603C6.58892 5.67603 6.92376 5.57759 7.11071 5.38069C7.29766 5.1838 7.39113 4.86563 7.39113 4.4262V3.48025C7.39113 2.95236 7.46229 2.53004 7.60459 2.21331C7.74968 1.89371 7.95059 1.65258 8.20729 1.48994C8.4668 1.32729 8.77373 1.21886 9.12809 1.16464C9.48246 1.11042 9.87032 1.08331 10.2916 1.08331V2.44443C9.96239 2.44443 9.71126 2.48867 9.53827 2.57712C9.36806 2.66273 9.25227 2.79684 9.19087 2.97947C9.12949 3.15924 9.0988 3.38752 9.0988 3.66431V4.91414C9.0988 5.13101 9.05974 5.33789 8.98161 5.53478C8.90348 5.72882 8.75837 5.90146 8.54631 6.05269C8.33425 6.20108 8.03151 6.3195 7.63808 6.40795C7.24464 6.49356 6.73401 6.53636 6.1062 6.53636ZM10.2916 11.9166C9.87032 11.9166 9.48246 11.8896 9.12809 11.8353C8.77373 11.7811 8.4668 11.6727 8.20729 11.5101C7.95059 11.3474 7.74968 11.1062 7.60459 10.7867C7.46229 10.4699 7.39113 10.0476 7.39113 9.51971V8.56948C7.39113 8.13004 7.29766 7.81188 7.11071 7.61499C6.92376 7.41809 6.58892 7.31965 6.1062 7.31965V6.45932C6.73401 6.45932 7.24464 6.50354 7.63808 6.59201C8.03151 6.67761 8.33425 6.79603 8.54631 6.94727C8.75837 7.09565 8.90348 7.26829 8.98161 7.46518C9.05974 7.65921 9.0988 7.8661 9.0988 8.08582V9.33565C9.0988 9.60959 9.12949 9.83644 9.19087 10.0162C9.25227 10.1988 9.36806 10.333 9.53827 10.4186C9.71126 10.507 9.96239 10.5512 10.2916 10.5512V11.9166ZM6.1062 7.31965V5.67603H7.60877V7.31965H6.1062Z" fill="#FF3636"/>
</svg>
