<?xml version="1.0" encoding="UTF-8"?>
<svg class="astro-3EF6KSR2" viewBox="0 0 179 29" xmlns="http://www.w3.org/2000/svg">
<path class="astro-3EF6KSR2" d="M0 29V0.144409H8.82235V3.76989H4.60686V25.3631H8.82235V29H0Z" fill="#FF3636"/>
<path class="astro-3EF6KSR2" d="m10.525 14.669v-2.2916c1.2896 0 2.1841-0.2622 2.6836-0.7866 0.4994-0.5245 0.7491-1.3719 0.7491-2.5424v-2.5196c0-1.4061 0.1901-2.531 0.5703-3.3747 0.3876-0.85127 0.9244-1.4935 1.6102-1.9268 0.6932-0.43323 1.5132-0.72205 2.4599-0.86646 0.9468-0.14441 1.9829-0.21662 3.1086-0.21662v3.6255c-0.8797 0-1.5506 0.11781-2.0128 0.35342-0.4547 0.22802-0.764 0.58525-0.928 1.0717-0.164 0.47884-0.246 1.0869-0.246 1.8241v3.3291c0 0.5776-0.1044 1.1287-0.3131 1.6531-0.2087 0.5169-0.5964 0.9767-1.1629 1.3795-0.5666 0.3953-1.3754 0.7107-2.4264 0.9463-1.0511 0.228-2.4153 0.342-4.0925 0.342zm11.182 14.331c-1.1257 0-2.1618-0.0722-3.1086-0.2166-0.9467-0.1444-1.7667-0.4332-2.4599-0.8665-0.6858-0.4332-1.2226-1.0755-1.6102-1.9267-0.3802-0.8437-0.5703-1.9686-0.5703-3.3747v-2.531c0-1.1705-0.2497-2.0179-0.7491-2.5424-0.4995-0.5244-1.394-0.7866-2.6836-0.7866v-2.2916c1.6772 0 3.0414 0.1178 4.0925 0.3534 1.051 0.228 1.8598 0.5435 2.4264 0.9463 0.5665 0.3952 0.9542 0.8551 1.1629 1.3795 0.2087 0.5168 0.3131 1.0679 0.3131 1.6531v3.3291c0 0.7296 0.082 1.3339 0.246 1.8127 0.164 0.4865 0.4733 0.8437 0.928 1.0717 0.4622 0.2356 1.1331 0.3534 2.0128 0.3534v3.6369zm-11.182-12.244v-4.378h4.0142v4.378h-4.0142z" fill="#FF3636"/>
<path class="astro-3EF6KSR2" d="m171.74 4.1729c-0.533 0-0.995-0.1841-1.385-0.5523-0.369-0.38865-0.554-0.83866-0.554-1.35 0-0.53184 0.185-0.98186 0.554-1.3501 0.39-0.3682 0.852-0.55229 1.385-0.55229 0.534 0 0.985 0.1841 1.354 0.55229 0.39 0.36819 0.585 0.81821 0.585 1.3501 0 0.51138-0.195 0.96139-0.585 1.35-0.369 0.3682-0.82 0.5523-1.354 0.5523zm3.755 18.839c-1.58 0-2.791-0.3682-3.632-1.1046s-1.261-1.8409-1.261-3.3137v-9.0208h-5.571v-1.841h7.817v10.647c0 0.9409 0.226 1.616 0.677 2.0251 0.452 0.4091 1.118 0.6136 2 0.6136 0.534 0 1.078-0.0511 1.632-0.1534 0.553-0.1227 1.169-0.317 1.846-0.583v2.0251c-0.595 0.2046-1.19 0.3682-1.785 0.4909-0.574 0.1432-1.149 0.2148-1.723 0.2148z"/>
<path class="astro-3EF6KSR2" d="m153.99 23.012c-1.088 0-2.062-0.1943-2.924-0.583-0.841-0.3886-1.498-0.9205-1.97-1.5955-0.471-0.6955-0.707-1.4932-0.707-2.3933 0-0.9 0.236-1.6875 0.707-2.3626 0.493-0.675 1.17-1.1966 2.032-1.5648 0.882-0.3682 1.897-0.5523 3.046-0.5523 0.903 0 1.744 0.0921 2.524 0.2762 0.779 0.1636 1.518 0.45 2.216 0.8591v-1.7182c0-1.3296-0.339-2.332-1.016-3.007s-1.682-1.0125-3.016-1.0125c-0.759 0-1.518 0.1125-2.277 0.33751-0.759 0.20455-1.611 0.5727-2.555 1.1046l-0.923-1.6876c1.088-0.59321 2.124-1.0125 3.108-1.258 0.985-0.24547 1.96-0.3682 2.924-0.3682 1.908 0 3.375 0.4807 4.401 1.4421 1.046 0.9614 1.569 2.3422 1.569 4.1422v9.6345h-2.215v-1.7183c-0.698 0.6955-1.457 1.2069-2.278 1.5342-0.8 0.3272-1.682 0.4909-2.646 0.4909zm-3.447-4.6331c0 0.8795 0.359 1.5852 1.077 2.1171 0.718 0.5318 1.662 0.7977 2.831 0.7977 0.882 0 1.683-0.1329 2.401-0.3988 0.738-0.2864 1.426-0.7364 2.062-1.3501v-2.8842c-0.636-0.3886-1.314-0.6648-2.032-0.8284-0.718-0.1637-1.508-0.2455-2.369-0.2455-1.19 0-2.154 0.2557-2.893 0.7671-0.718 0.5114-1.077 1.1864-1.077 2.0251z"/>
<path class="astro-3EF6KSR2" d="m138.74 22.982c-0.574 0-1.056-0.1943-1.446-0.583-0.37-0.3886-0.554-0.8591-0.554-1.4114s0.184-1.0227 0.554-1.4114c0.39-0.3886 0.872-0.583 1.446-0.583 0.575 0 1.046 0.1944 1.416 0.583 0.39 0.3887 0.584 0.8591 0.584 1.4114s-0.194 1.0228-0.584 1.4114c-0.37 0.3887-0.841 0.583-1.416 0.583z"/>
<path class="astro-3EF6KSR2" d="m124.6 23.012c-1.683 0-2.975-0.358-3.878-1.0739-0.882-0.7364-1.323-1.8001-1.323-3.191v-9.1742h-5.14v-1.841h5.14v-4.1115l2.246-0.52161v4.6331h6.925v1.841h-6.925v8.806c0 0.9409 0.257 1.616 0.77 2.0251s1.251 0.6136 2.215 0.6136c0.595 0 1.211-0.0614 1.847-0.1841s1.333-0.3273 2.093-0.6136v2.025c-0.677 0.2455-1.344 0.4296-2.001 0.5523-0.656 0.1432-1.313 0.2148-1.969 0.2148z"/>
<path class="astro-3EF6KSR2" d="m105.77 23.012c-1.415 0-2.698-0.3375-3.847-1.0126-1.128-0.6954-2.0308-1.6261-2.7078-2.7921-0.6565-1.1659-0.9848-2.4853-0.9848-3.9581s0.3283-2.7921 0.9848-3.9581c0.677-1.1864 1.5798-2.1171 2.7078-2.7921 1.149-0.67502 2.432-1.0125 3.847-1.0125 1.395 0 2.657 0.30683 3.785 0.92049 1.129 0.61366 2.021 1.4421 2.678 2.4853l-1.816 1.1353c-0.472-0.7773-1.118-1.391-1.939-1.841-0.8-0.47044-1.702-0.70568-2.708-0.70568-1.026 0-1.939 0.25569-2.739 0.76708-0.8 0.4909-1.436 1.1659-1.908 2.0251-0.451 0.8591-0.677 1.8512-0.677 2.9762 0 1.1046 0.226 2.0967 0.677 2.9762 0.472 0.8592 1.108 1.5444 1.908 2.0558 0.8 0.4909 1.713 0.7364 2.739 0.7364 1.006 0 1.908-0.225 2.708-0.675 0.821-0.4705 1.467-1.0944 1.939-1.8717l1.816 1.1353c-0.657 1.0432-1.549 1.8716-2.678 2.4853-1.128 0.6137-2.39 0.9205-3.785 0.9205z"/>
<path class="astro-3EF6KSR2" d="m87.567 23.012c-1.0874 0-2.0619-0.1943-2.9236-0.583-0.8412-0.3886-1.4977-0.9205-1.9696-1.5955-0.4718-0.6955-0.7078-1.4932-0.7078-2.3933 0-0.9 0.236-1.6875 0.7078-2.3626 0.4924-0.675 1.1695-1.1966 2.0312-1.5648 0.8822-0.3682 1.8977-0.5523 3.0467-0.5523 0.9027 0 1.7439 0.0921 2.5235 0.2762 0.7796 0.1636 1.5182 0.45 2.2158 0.8591v-1.7182c0-1.3296-0.3386-2.332-1.0156-3.007s-1.6823-1.0125-3.0159-1.0125c-0.7591 0-1.5182 0.1125-2.2773 0.33751-0.7592 0.20455-1.6106 0.5727-2.5543 1.1046l-0.9233-1.6876c1.0874-0.59321 2.1235-1.0125 3.1083-1.258 0.9847-0.24547 1.9593-0.3682 2.9236-0.3682 1.908 0 3.3749 0.4807 4.4007 1.4421 1.0464 0.9614 1.5695 2.3422 1.5695 4.1422v9.6345h-2.2157v-1.7183c-0.6976 0.6955-1.4567 1.2069-2.2774 1.5342-0.8001 0.3272-1.6823 0.4909-2.6466 0.4909zm-3.4467-4.6331c0 0.8795 0.359 1.5852 1.0771 2.1171 0.718 0.5318 1.6618 0.7977 2.8312 0.7977 0.8822 0 1.6824-0.1329 2.4005-0.3988 0.7386-0.2864 1.4259-0.7364 2.0619-1.3501v-2.8842c-0.636-0.3886-1.3131-0.6648-2.0312-0.8284-0.718-0.1637-1.5079-0.2455-2.3696-0.2455-1.19 0-2.1542 0.2557-2.8928 0.7671-0.7181 0.5114-1.0771 1.1864-1.0771 2.0251z"/>
<path class="astro-3EF6KSR2" d="m69.73 22.705v-13.132h-5.1394v-1.841h5.1394v-3.0069c0-3.1501 1.8157-4.7252 5.4471-4.7252 0.6155 0 1.231 0.061365 1.8465 0.1841 0.636 0.12273 1.2618 0.2966 1.8773 0.52161v2.0864c-0.7591-0.30683-1.4259-0.51138-2.0004-0.61366-0.5744-0.12273-1.2207-0.18409-1.9388-0.18409-0.9643 0-1.7029 0.24546-2.2158 0.73639-0.5129 0.47047-0.7693 1.258-0.7693 2.3626v2.6387h6.9243v1.841h-6.9243v13.132h-2.2466z"/>
<path class="astro-3EF6KSR2" d="m56.077 23.012c-1.4361 0-2.7287-0.3375-3.8776-1.0126-1.1489-0.6954-2.0619-1.6261-2.7389-2.7921-0.6566-1.1864-0.9848-2.516-0.9848-3.9888s0.318-2.7921 0.954-3.9581c0.636-1.1659 1.4977-2.0864 2.5851-2.7614 1.1079-0.67502 2.3388-1.0125 3.6929-1.0125 1.4157 0 2.6774 0.33752 3.7853 1.0125 1.1079 0.65457 1.9799 1.5546 2.6159 2.7001 0.636 1.125 0.954 2.4035 0.954 3.8353v0.6751h-12.402c0.082 1.0227 0.3693 1.9432 0.8617 2.7614 0.4924 0.7978 1.1386 1.4319 1.9388 1.9024 0.8206 0.45 1.7234 0.675 2.7081 0.675 0.8823 0 1.7029-0.1637 2.462-0.4909 0.7797-0.3478 1.4259-0.8183 1.9388-1.4115l1.5695 1.3808c-0.8001 0.8182-1.7131 1.4421-2.7389 1.8716-1.0258 0.4091-2.1337 0.6137-3.3237 0.6137zm-5.3548-8.9594h10.125c-0.1231-0.9001-0.4308-1.6978-0.9232-2.3933-0.4719-0.6955-1.0772-1.2375-1.8157-1.6262-0.7181-0.40909-1.5285-0.61364-2.4312-0.61364-0.8412 0-1.6106 0.19432-2.3081 0.58294-0.6976 0.3887-1.2823 0.9307-1.7542 1.6262-0.4514 0.6955-0.7489 1.5035-0.8925 2.424z"/>
<path class="astro-3EF6KSR2" d="m32.732 22.705v-1.841h4.1238v-11.291h-4.1238v-1.841h6.3704v3.3444c0.4514-1.1455 1.1284-2.025 2.0311-2.6387 0.9028-0.63411 1.9491-0.95117 3.139-0.95117 0.4719 0 0.8925 0.04091 1.2618 0.12273 0.3693 0.06137 0.8104 0.17387 1.3233 0.33752v2.0557c-0.5129-0.16361-1.0053-0.29657-1.4772-0.39885-0.4513-0.10227-0.9027-0.15341-1.3541-0.15341-1.1078 0-2.0926 0.28637-2.9543 0.85916-0.8617 0.5727-1.5182 1.3909-1.9696 2.4546v8.1003h4.37v1.841h-10.74z"/>
</svg>
